PathFileType  4	(X/Y/Z) C:\Users\antoi\Documents\MyRepositories\mobilecap\ResultsAnalysis
DataRate	CameraRate	NumFrames	NumMarkers	Units	OrigDataRate	OrigDataStartFrame	OrigNumFrames
100.0	100.0	7	51	mm	100.0	58	231
Frame#	Time	r_knee			r_shank_antsup			r_ankle			r_calc			r_5meta			r_toe			L_knee			L_shank_antsup			L_ankle			L_calc			L_5meta			L_toe			r_sh2			r_sh3			r_sh4			L_sh2			L_sh3			r_thigh1			r_thigh2			r_thigh3			r_thigh4			r_thigh5			L_thigh1			L_thigh2			L_thigh3			L_thigh4			r.ASIS			r.PSIS			L.ASIS			L.PSIS			C7			R_Shoulder			L_Shoulder			R_Sternum			L_Sternum			R_humerus			R_elbow_med			R_elbow_lat			R_forearm			R_wrist_radius			R_wrist_ulna			L_humerus			L_elbow_med			L_elbow_lat			L_forearm			L_wrist_radius			L_wrist_ulna			R_HJC			L_HJC			R_HJC_reg			L_HJC_reg			
		X1	Y1	Z1	X2	Y2	Z2	X3	Y3	Z3	X4	Y4	Z4	X5	Y5	Z5	X6	Y6	Z6	X7	Y7	Z7	X8	Y8	Z8	X9	Y9	Z9	X10	Y10	Z10	X11	Y11	Z11	X12	Y12	Z12	X13	Y13	Z13	X14	Y14	Z14	X15	Y15	Z15	X16	Y16	Z16	X17	Y17	Z17	X18	Y18	Z18	X19	Y19	Z19	X20	Y20	Z20	X21	Y21	Z21	X22	Y22	Z22	X23	Y23	Z23	X24	Y24	Z24	X25	Y25	Z25	X26	Y26	Z26	X27	Y27	Z27	X28	Y28	Z28	X29	Y29	Z29	X30	Y30	Z30	X31	Y31	Z31	X32	Y32	Z32	X33	Y33	Z33	X34	Y34	Z34	X35	Y35	Z35	X36	Y36	Z36	X37	Y37	Z37	X38	Y38	Z38	X39	Y39	Z39	X40	Y40	Z40	X41	Y41	Z41	X42	Y42	Z42	X43	Y43	Z43	X44	Y44	Z44	X45	Y45	Z45	X46	Y46	Z46	X47	Y47	Z47	X48	Y48	Z48	X49	Y49	Z49	X50	Y50	Z50	X51	Y51	Z51	

58	0.57000000	-992.17806	723.96547	-473.00312	-997.38543	651.62204	-447.94657	-1173.13168	399.71490	-464.34072	-1246.66114	362.04406	-500.37383	-1074.77139	353.29633	-437.53419	-1033.00002	371.23905	-495.40304	-990.32576	720.60951	-730.69244	-982.19891	643.77557	-737.70064	-1175.79601	402.83230	-730.23928	-1249.64990	365.94493	-684.74451	-1088.79820	351.30061	-761.22579	-1038.55452	371.73452	-705.85252	-1053.25225	553.27691	-437.71616	-1063.20010	687.35925	-451.72029	-1127.01791	590.74387	-442.36206	-1052.76893	696.02915	-758.04834	-1112.55890	590.09152	-767.01156	-1032.02063	1033.80445	-454.35116	-985.40577	929.90545	-460.93585	-1014.91305	890.11713	-414.93991	-1110.41686	996.45684	-381.77872	-1071.40078	888.02021	-404.40788	-1045.09098	1005.30997	-736.83944	-983.30555	879.58865	-736.51895	-1149.33975	958.13953	-754.92824	-1081.25963	833.84939	-751.74360	-1048.00393	1119.11625	-444.87817	-1207.73092	1211.91643	-519.51874	-1056.00683	1104.84229	-700.70825	-1214.97799	1204.81450	-626.46061	-861.46063	1539.22031	-593.62941	-827.06723	1448.64676	-447.40558	-828.28512	1445.80507	-749.75233	-808.96893	1401.04516	-576.17881	-811.90104	1398.86758	-616.85265	-910.14635	1238.91693	-353.10364	-1001.64206	1153.16606	-386.28389	-959.68610	1168.03106	-322.14105	-888.05070	1071.47660	-350.15593	-832.67162	978.98232	-385.88338	-863.37563	952.34643	-367.03909	-855.09911	1323.76807	-805.31723	-1007.68701	1154.94001	-815.15229	-979.80175	1163.23188	-874.15154	-921.88824	1063.49813	-870.22172	-896.85763	944.76781	-841.54165	-924.99801	931.77507	-864.47648	-1141.65108	1079.29954	-468.07659	-1143.64260	1069.06058	-668.09702	-1138.60053	1073.40140	-472.05437	-1150.01251	1062.21398	-640.49019	
59	0.58000000	-984.96353	719.69763	-473.21969	-991.00757	647.50427	-448.18709	-1172.44413	399.74570	-464.53713	-1246.46230	362.25733	-500.36186	-1074.54627	352.92030	-437.29861	-1032.73381	370.56870	-495.17467	-983.14159	716.26089	-730.51788	-976.34013	639.12618	-737.33940	-1175.28732	402.89367	-730.14042	-1249.49773	366.10390	-684.71673	-1088.67968	351.15994	-761.34480	-1038.24966	371.15747	-705.80076	-1049.13106	550.51553	-437.88583	-1055.91372	684.93201	-452.12186	-1122.01476	589.61385	-442.61893	-1045.71641	692.86975	-757.97676	-1107.56403	588.06314	-767.08838	-1026.88248	1029.15778	-455.51348	-979.08976	925.63155	-460.83583	-1008.71684	885.76055	-414.44146	-1104.71563	991.19396	-382.26788	-1064.94471	883.16248	-404.64943	-1039.14088	1000.58168	-735.43573	-976.87461	875.91528	-735.88391	-1143.69531	953.11686	-754.64858	-1074.40047	829.45941	-752.31718	-1043.05741	1114.31426	-445.25346	-1203.47756	1206.23431	-519.92631	-1051.57172	1100.56302	-701.49331	-1210.49388	1199.16081	-626.72269	-857.42336	1534.22325	-593.69522	-822.88033	1444.18508	-447.41154	-824.21732	1441.15073	-749.16685	-804.62517	1396.31711	-575.95599	-807.55839	1393.73818	-616.58924	-900.65796	1233.07083	-353.81081	-987.05076	1142.83527	-388.58066	-946.69632	1159.45218	-323.87205	-869.97026	1066.96499	-353.26048	-810.11146	977.97364	-390.06038	-839.46577	949.61740	-371.51207	-846.82722	1319.10658	-804.64386	-991.59036	1143.62501	-815.47471	-964.05361	1153.29798	-874.28685	-900.38446	1056.94169	-867.67254	-869.16943	939.80072	-837.05124	-895.78078	925.16244	-860.91654	-1136.50244	1073.95123	-468.66581	-1138.67744	1064.05398	-668.70177	-1133.80494	1068.09130	-472.65830	-1144.88905	1056.91526	-641.38023	
60	0.59000000	-977.47040	715.56089	-473.38848	-984.55189	643.20858	-448.42008	-1171.76262	399.79746	-464.66233	-1246.25646	362.54780	-500.46178	-1074.37323	352.61119	-437.06360	-1032.41720	370.05398	-495.00213	-976.21456	711.83683	-730.89075	-970.75783	634.42829	-737.48424	-1174.78534	403.00217	-730.06767	-1249.30912	366.32138	-684.69614	-1088.57317	351.02695	-761.47033	-1037.96487	370.63243	-705.85323	-1044.88865	547.55616	-438.18325	-1048.52092	682.14482	-452.37553	-1116.87649	588.37686	-442.80880	-1038.99319	689.66337	-758.24467	-1102.96891	586.20670	-767.19855	-1020.79606	1024.16503	-456.31543	-972.54108	921.27570	-460.71054	-1002.34888	881.30014	-414.35301	-1098.73263	986.32701	-382.84180	-1058.32365	878.50216	-404.78336	-1033.11752	995.94321	-735.26404	-970.50205	872.22022	-735.99380	-1137.97223	948.29870	-754.50706	-1067.57043	824.95574	-752.32241	-1037.34679	1109.58562	-446.19075	-1198.55320	1200.90761	-520.31551	-1046.37101	1096.23907	-702.48873	-1205.68290	1193.60970	-627.05059	-853.52255	1530.33914	-593.66974	-818.70911	1440.79768	-448.01882	-820.10766	1437.95367	-748.67699	-800.28511	1392.59906	-575.76837	-803.22400	1389.74086	-616.35588	-891.37275	1228.75843	-354.11691	-973.49012	1134.54992	-389.58391	-933.78901	1152.89562	-324.79074	-851.48104	1065.65096	-355.60108	-786.47074	980.94490	-394.02106	-814.04260	950.71397	-375.66197	-838.63472	1316.18549	-804.32897	-975.03529	1134.18057	-815.38000	-948.04319	1145.39782	-874.45115	-877.95116	1053.41653	-865.05882	-839.66466	938.70521	-832.39590	-864.55968	922.23870	-856.61386	-1130.60445	1068.76421	-469.42373	-1133.21774	1059.14287	-669.46781	-1128.05665	1063.36878	-473.41343	-1139.32768	1051.83247	-642.13500	
61	0.60000000	-969.73043	711.31518	-473.74459	-978.23926	638.99714	-448.50873	-1171.10727	399.88283	-464.66806	-1246.00770	362.86536	-500.55590	-1074.25357	352.38225	-436.83262	-1032.06463	369.62291	-494.79965	-969.63217	707.61488	-731.74777	-965.30017	629.81201	-738.22081	-1174.27332	403.08429	-729.98401	-1249.09629	366.53812	-684.53751	-1088.45003	350.86006	-761.55571	-1037.69711	370.21429	-705.99046	-1040.71322	544.59769	-438.38184	-1041.33465	679.25232	-452.58855	-1111.76834	587.19206	-442.97501	-1032.51797	686.42076	-758.83719	-1098.83944	584.30923	-767.22149	-1014.29264	1019.45085	-455.95199	-965.74727	916.90246	-460.65223	-995.78735	876.87823	-414.49478	-1092.47899	981.87335	-383.25347	-1051.68144	874.01455	-405.01151	-1027.33222	991.83493	-736.06553	-964.22216	868.45842	-736.63055	-1132.09512	943.83162	-754.68004	-1060.95193	820.43442	-751.90782	-1031.08143	1104.94593	-447.23097	-1192.94393	1196.02215	-520.66007	-1040.53498	1091.94075	-703.70013	-1200.62748	1188.37015	-627.28095	-850.02686	1527.63832	-593.50981	-814.80506	1438.30498	-449.16705	-815.98611	1436.22723	-748.26487	-796.92458	1389.02128	-575.33250	-798.82046	1386.97154	-616.15415	-882.11369	1226.02940	-354.14744	-960.20704	1128.15766	-389.49062	-920.72331	1148.42133	-325.07437	-832.73833	1067.24475	-357.23353	-762.30173	987.80308	-397.56055	-787.58342	955.52269	-379.36572	-830.40711	1314.96638	-804.30312	-958.30471	1126.70030	-815.31315	-931.76701	1139.67856	-875.02435	-855.03741	1052.87030	-862.58661	-808.94381	941.58513	-827.41678	-831.82881	923.14426	-851.71432	-1124.18499	1063.81968	-470.21184	-1127.39887	1054.45044	-670.25912	-1121.52575	1059.16380	-473.89352	-1133.68578	1047.05407	-642.62395	
62	0.61000000	-962.55399	706.94199	-473.83106	-972.21633	634.90684	-448.52022	-1170.43868	400.02254	-464.70162	-1245.73006	363.16590	-500.52714	-1074.10805	352.20829	-436.58974	-1031.74379	369.18948	-494.59882	-963.33661	703.59355	-733.12172	-959.92343	625.22030	-739.36257	-1173.73985	403.18476	-730.04359	-1248.86783	366.77772	-684.35080	-1088.31404	350.63781	-761.67111	-1037.36639	369.86936	-706.12846	-1036.80741	541.81581	-438.32536	-1034.45172	676.50611	-452.81148	-1106.89160	586.13200	-443.16747	-1026.19476	683.13883	-759.74875	-1094.74798	582.31664	-767.63307	-1007.36319	1015.49136	-454.78685	-958.70228	912.56527	-460.62785	-988.87277	872.59121	-414.52176	-1085.88023	977.67486	-383.55546	-1045.03625	869.69230	-405.39457	-1021.36478	988.12967	-737.23825	-957.95260	864.62728	-737.76706	-1126.01125	939.69962	-754.75576	-1054.66673	816.24528	-751.99147	-1024.31948	1100.67924	-448.27103	-1186.66453	1191.57862	-520.91526	-1034.19505	1087.74558	-704.84849	-1195.03707	1183.61784	-627.31313	-847.04790	1526.00671	-593.38663	-811.17936	1436.99514	-450.25597	-811.91871	1436.00408	-747.80140	-794.21784	1385.95138	-574.80310	-794.28888	1385.53264	-616.11946	-872.56849	1224.91698	-353.84905	-945.40526	1123.53048	-389.20630	-907.30563	1145.91788	-324.82736	-814.02934	1071.55055	-358.29294	-738.16289	998.28728	-400.71697	-760.74235	963.92868	-382.78133	-822.05838	1315.37530	-804.55822	-941.37500	1121.35179	-815.92995	-915.34729	1136.07710	-875.99984	-831.97184	1055.31566	-860.25229	-777.97990	948.48983	-821.68089	-798.27880	928.18468	-846.46624	-1117.26843	1059.31102	-470.85567	-1121.19503	1050.05923	-670.89559	-1114.40295	1055.27400	-474.26393	-1127.67738	1042.65255	-642.95306	
63	0.62000000	-956.27936	702.61087	-473.56652	-966.60059	630.89242	-448.54957	-1169.72201	400.24947	-464.79648	-1245.46795	363.48999	-500.50370	-1073.89469	352.03250	-436.41458	-1031.42741	368.72343	-494.45531	-957.23677	699.50814	-734.89476	-954.71922	620.69142	-740.73384	-1173.11295	403.38971	-730.29176	-1248.61185	367.11753	-684.31238	-1088.20983	350.35616	-761.85006	-1037.03861	369.38013	-706.27876	-1033.16478	539.21510	-438.08403	-1028.01163	673.76207	-453.21198	-1102.33176	585.01596	-443.53203	-1019.98585	679.76200	-761.10015	-1090.45131	580.32593	-768.71542	-999.64483	1011.83051	-454.12656	-951.38377	908.34121	-460.55588	-981.67747	868.44871	-414.46694	-1078.95111	973.60400	-383.95558	-1038.25367	865.58987	-405.82866	-1014.69011	984.42540	-738.69944	-951.59541	860.68152	-739.65447	-1119.66370	935.92682	-754.51198	-1048.63692	812.54266	-752.93790	-1016.86525	1097.00727	-449.29116	-1179.71817	1187.57949	-521.07412	-1027.15050	1083.76706	-705.85708	-1188.57092	1179.43162	-627.20861	-844.34959	1525.47243	-593.41654	-807.39387	1437.45788	-450.84982	-807.84848	1437.21728	-747.25992	-790.56377	1384.98813	-574.68145	-789.58449	1385.48685	-616.36525	-862.40354	1225.39435	-353.30119	-929.37755	1121.21237	-388.81630	-893.50393	1145.34234	-323.84321	-795.50581	1078.57592	-359.01564	-714.60591	1012.14755	-403.46535	-734.19850	975.91832	-385.68565	-813.53759	1317.32877	-804.98722	-924.22747	1118.00105	-817.32036	-898.80793	1134.31791	-877.12755	-809.02847	1060.74753	-858.05160	-747.37638	959.50838	-815.48125	-764.81479	937.57321	-840.81819	-1109.65899	1055.35782	-471.33038	-1114.32075	1046.04511	-671.35170	-1106.67910	1051.54324	-474.79167	-1120.74346	1038.59885	-643.40698	
64	0.63000000	-950.19371	698.43794	-473.57785	-961.43907	626.98096	-448.66034	-1168.99496	400.64654	-464.80299	-1245.21103	363.93269	-500.69659	-1073.71546	351.76562	-436.42716	-1031.06728	368.23998	-494.35787	-951.41075	695.31629	-736.75571	-949.84280	616.39730	-742.22738	-1172.38448	403.68431	-730.57174	-1248.29834	367.57761	-684.39021	-1088.13303	350.06557	-762.06940	-1036.79884	368.71348	-706.58562	-1029.66370	536.68234	-438.14182	-1022.08494	670.94218	-453.80617	-1098.01478	583.65620	-444.18401	-1014.06675	676.31594	-762.83816	-1086.24610	578.29336	-769.99542	-991.51610	1008.41967	-453.32271	-943.74176	904.25376	-460.36104	-974.40645	864.39860	-414.56498	-1071.62561	969.82933	-384.44867	-1031.22113	861.79884	-406.22931	-1007.24094	980.72664	-740.59746	-945.10736	856.60055	-742.17040	-1112.93085	932.81695	-754.46197	-1042.74283	809.18585	-754.12057	-1008.56658	1093.96934	-450.09777	-1172.08499	1184.08758	-521.13707	-1019.19752	1080.37175	-706.94224	-1181.04767	1175.90745	-627.18890	-841.66665	1526.16912	-593.53702	-803.11962	1439.91284	-451.21667	-803.59755	1439.78251	-746.87572	-785.58387	1386.45629	-574.94870	-784.67604	1386.81409	-616.83667	-851.53582	1227.51011	-352.58298	-913.89716	1121.43135	-387.64395	-879.45559	1146.94825	-322.02465	-777.28018	1088.36873	-359.46184	-692.16368	1029.16699	-405.58393	-708.47598	991.40371	-387.69672	-804.80696	1320.76212	-805.32616	-906.91178	1116.44366	-819.06826	-882.03223	1134.38913	-878.52226	-786.46192	1069.08140	-856.05914	-717.21012	974.66928	-809.87380	-731.91853	951.13468	-835.11856	-1101.23449	1051.98375	-471.78886	-1106.49732	1042.64287	-671.79407	-1098.36593	1047.96749	-475.50450	-1112.63125	1034.94761	-644.30303	
